<svg xmlns="http://www.w3.org/2000/svg" width="1200" height="200" viewBox="0 0 1200 200">
  <!-- Cloud cluster 1 -->
  <g>
    <ellipse cx="90" cy="110" rx="55" ry="32" fill="#ffd6eb" fill-opacity="0.45"/>
    <ellipse cx="135" cy="90" rx="48" ry="35" fill="#ffe0f0" fill-opacity="0.50"/>
    <ellipse cx="175" cy="108" rx="42" ry="28" fill="#ffd6eb" fill-opacity="0.40"/>
    <ellipse cx="50" cy="105" rx="35" ry="22" fill="#ffe8f4" fill-opacity="0.35"/>
  </g>

  <!-- Cloud cluster 2 -->
  <g>
    <ellipse cx="350" cy="65" rx="65" ry="38" fill="#ffe0f0" fill-opacity="0.42"/>
    <ellipse cx="400" cy="48" rx="50" ry="32" fill="#ffd6eb" fill-opacity="0.48"/>
    <ellipse cx="310" cy="58" rx="40" ry="25" fill="#fff0f8" fill-opacity="0.38"/>
    <ellipse cx="430" cy="62" rx="36" ry="22" fill="#ffe8f4" fill-opacity="0.35"/>
  </g>

  <!-- Cloud cluster 3 (small puff) -->
  <g>
    <ellipse cx="530" cy="140" rx="32" ry="20" fill="#ffd6eb" fill-opacity="0.35"/>
    <ellipse cx="555" cy="130" rx="28" ry="18" fill="#ffe0f0" fill-opacity="0.38"/>
  </g>

  <!-- Cloud cluster 4 -->
  <g>
    <ellipse cx="680" cy="80" rx="58" ry="34" fill="#ffe0f0" fill-opacity="0.46"/>
    <ellipse cx="730" cy="65" rx="45" ry="30" fill="#ffd6eb" fill-opacity="0.50"/>
    <ellipse cx="640" cy="75" rx="38" ry="24" fill="#fff0f8" fill-opacity="0.36"/>
    <ellipse cx="760" cy="78" rx="30" ry="20" fill="#ffe8f4" fill-opacity="0.32"/>
  </g>

  <!-- Cloud cluster 5 (small puff) -->
  <g>
    <ellipse cx="860" cy="150" rx="35" ry="22" fill="#ffe0f0" fill-opacity="0.32"/>
    <ellipse cx="890" cy="140" rx="30" ry="18" fill="#ffd6eb" fill-opacity="0.36"/>
  </g>

  <!-- Cloud cluster 6 -->
  <g>
    <ellipse cx="1000" cy="95" rx="52" ry="30" fill="#ffd6eb" fill-opacity="0.44"/>
    <ellipse cx="1045" cy="78" rx="44" ry="28" fill="#ffe0f0" fill-opacity="0.48"/>
    <ellipse cx="965" cy="88" rx="36" ry="22" fill="#ffe8f4" fill-opacity="0.36"/>
    <ellipse cx="1080" cy="92" rx="32" ry="20" fill="#fff0f8" fill-opacity="0.30"/>
  </g>

  <!-- Cloud cluster 7 (small, near edge for seamless tiling) -->
  <g>
    <ellipse cx="1150" cy="55" rx="42" ry="26" fill="#ffe0f0" fill-opacity="0.38"/>
    <ellipse cx="1185" cy="45" rx="30" ry="20" fill="#ffd6eb" fill-opacity="0.42"/>
    <!-- Wraps to left edge for seamless tile -->
    <ellipse cx="15" cy="50" rx="28" ry="18" fill="#ffd6eb" fill-opacity="0.38"/>
  </g>
</svg>
